<?xml version="1.0" encoding="utf-8"?>
<!-- Generator: Adobe Illustrator 16.0.0, SVG Export Plug-In . SVG Version: 6.00 Build 0)  -->
<!DOCTYPE svg PUBLIC "-//W3C//DTD SVG 1.1//EN" "http://www.w3.org/Graphics/SVG/1.1/DTD/svg11.dtd">
<svg version="1.1" id="Layer_1" xmlns="http://www.w3.org/2000/svg" xmlns:xlink="http://www.w3.org/1999/xlink" x="0px" y="0px"
	 width="500px" height="500px" viewBox="0 0 500 500" enable-background="new 0 0 500 500" xml:space="preserve">
<g id="app-icon">
	<path fill-rule="evenodd" clip-rule="evenodd" d="M233.44,98.1c-0.04-11.64-4.44-21.34-13.87-28.55
		c-4.99-3.8-10.78-5.51-16.75-6.82H93.54c-6.47,1.32-12.65,3.23-17.88,7.57c-6.74,5.58-10.96,12.55-12.35,21.21
		c-0.11,0.69-0.38,1.35-0.58,2.03v109.28c1.15,3.7,1.83,7.63,3.52,11.06c6.54,13.28,17.7,19.49,32.22,19.55
		c33.12,0.14,66.24,0.08,99.36,0c3.14-0.01,6.39-0.32,9.41-1.14c16.32-4.43,26.06-16.85,26.17-34.09
		C233.62,164.83,233.54,131.46,233.44,98.1z M216.32,197.16c0,9.72-4.4,16.27-12.46,18.41c-2.32,0.61-4.83,0.73-7.25,0.73
		c-16.25,0.07-32.51,0.04-48.76,0.04c-16.14,0-32.27,0.02-48.4-0.01c-12.96-0.02-19.69-6.72-19.7-19.63
		c-0.01-32.38-0.01-64.77,0-97.16c0.01-13.06,6.8-19.79,19.97-19.79c32.26-0.01,64.53-0.01,96.79,0c13.01,0,19.8,6.67,19.82,19.51
		C216.35,131.89,216.35,164.52,216.32,197.16z"/>
	<path fill-rule="evenodd" clip-rule="evenodd" d="M430.48,75.43c-5.641-6.7-12.631-10.87-21.32-12.15
		c-0.59-0.09-1.15-0.36-1.72-0.55H298.16c-3.7,1.15-7.63,1.83-11.07,3.52c-13.27,6.53-19.49,17.69-19.55,32.21
		c-0.14,33.12-0.07,66.25,0.01,99.37c0,3.14,0.32,6.39,1.141,9.41c4.46,16.43,17.06,26.12,34.449,26.2
		c33.13,0.13,66.25,0.08,99.37,0.01c11.78-0.03,21.62-4.33,28.91-13.88c3.8-4.99,5.53-10.77,6.82-16.75V93.54
		C436.93,86.95,434.92,80.71,430.48,75.43z M421.22,196.91c-0.01,12.5-6.77,19.39-19.17,19.41c-32.76,0.04-65.51,0.05-98.26,0
		c-12.45-0.02-19.11-6.8-19.14-19.38c-0.04-16.25-0.011-32.51-0.011-48.76c0-16.26-0.02-32.51,0.011-48.76
		c0.02-12.95,6.729-19.66,19.659-19.67c32.381-0.01,64.771-0.01,97.16,0c12.9,0.01,19.75,6.8,19.75,19.64
		C421.24,131.9,421.24,164.4,421.22,196.91z"/>
	<path fill-rule="evenodd" clip-rule="evenodd" d="M233.43,303.15c-0.01-3.15-0.32-6.391-1.14-9.42
		c-4.46-16.431-17.07-26.12-34.46-26.19c-33.12-0.14-66.24-0.09-99.36-0.021c-11.78,0.03-21.62,4.33-28.92,13.891
		c-3.8,4.979-5.52,10.77-6.82,16.75v109.28c1.32,6.579,3.32,12.829,7.77,18.109c5.63,6.69,12.63,10.86,21.31,12.15
		c0.59,0.08,1.15,0.35,1.73,0.54h109.28c3.7-1.141,7.63-1.83,11.06-3.521c13.28-6.529,19.49-17.689,19.55-32.21
		C233.57,369.39,233.51,336.27,233.43,303.15z M216.32,401.95c-0.01,12.46-6.86,19.26-19.31,19.27c-32.63,0.021-65.26,0.021-97.89,0
		c-12.42-0.01-19.35-6.91-19.36-19.29c-0.03-32.63-0.03-65.26-0.01-97.89c0.01-12.63,6.82-19.37,19.57-19.39
		c16.25-0.04,32.51-0.011,48.76-0.011c16.5,0,33-0.05,49.5,0.021c9.39,0.04,15.91,4.56,18.01,12.51c0.59,2.21,0.71,4.58,0.72,6.89
		C216.35,336.69,216.36,369.32,216.32,401.95z"/>
	<path fill-rule="evenodd" clip-rule="evenodd" fill="#FFFFFF" d="M93.537,62.733c-6.467,1.32-12.648,3.231-17.878,7.566
		c-6.736,5.584-10.96,12.55-12.349,21.214c-0.11,0.688-0.381,1.349-0.577,2.023c0-10.268,0-20.536,0-30.803
		C73.001,62.733,83.269,62.733,93.537,62.733z"/>
	<path fill-rule="evenodd" clip-rule="evenodd" fill="#FFFFFF" d="M438.241,93.537c-1.313-6.582-3.319-12.83-7.763-18.109
		c-5.637-6.696-12.633-10.863-21.318-12.149c-0.589-0.087-1.148-0.359-1.723-0.545c10.269,0,20.536,0,30.804,0
		C438.241,73.001,438.241,83.269,438.241,93.537z"/>
	<path fill-rule="evenodd" clip-rule="evenodd" fill="#FFFFFF" d="M62.733,407.438c1.313,6.582,3.32,12.83,7.763,18.109
		c5.637,6.696,12.632,10.863,21.318,12.149c0.588,0.087,1.149,0.358,1.722,0.545c-10.268,0-20.536,0-30.803,0
		C62.733,427.974,62.733,417.706,62.733,407.438z"/>
	<path fill-rule="evenodd" clip-rule="evenodd" d="M403.91,353.52c-0.3,4.141-3.19,7.36-7.49,7.66c-4.51,0.32-9.04,0.181-13.56,0.19
		c-6.95,0.02-13.91,0.01-21.28,0.01c-0.08,1.51-0.19,2.79-0.19,4.08c-0.029,9.9,0,19.8-0.04,29.7c-0.02,3.76-1.659,6.66-5.18,8.13
		c-3.03,1.25-6.46,1.22-8.479-1.34c-1.75-2.19-3.091-5.34-3.181-8.11c-0.359-10.62-0.14-21.25-0.14-32.46h-4.04
		c-9.9-0.01-19.8,0.01-29.7-0.03c-3.76-0.02-6.62-1.67-8.13-5.18c-1.38-3.21-1.1-6.65,1.57-8.76c2.1-1.67,5.18-2.83,7.87-2.91
		c10.619-0.33,21.25-0.14,32.42-0.14v-4c0-9.53-0.21-19.07,0.14-28.591c0.1-2.67,1.35-5.729,3.05-7.81
		c2.16-2.65,5.61-2.82,8.79-1.39c3.49,1.58,5,4.529,5.01,8.25c0.04,9.66,0.021,19.31,0.03,28.97v4.57c10.7,0,20.94-0.011,31.18,0.02
		c1.58,0,3.2,0.03,4.73,0.36C401.68,345.71,404.21,349.17,403.91,353.52z"/>
</g>
</svg>
